<svg width="81" height="81" viewBox="0 0 81 81" fill="none" xmlns="http://www.w3.org/2000/svg">
    <g clip-path="url(#clip0_19_827)">
        <path
            d="M40.8494 -4.8444e-05C42.1758 -4.8444e-05 43.4819 0.0860141 44.6969 0.288514C45.8935 0.445313 47.0742 0.706177 48.2255 1.06814C49.3797 1.41745 50.5087 1.85283 51.6376 2.39958C52.7362 2.92102 53.8651 3.55889 54.994 4.25245C56.9026 5.46745 58.7808 6.44958 60.6944 7.23427C64.4616 8.74205 68.4452 9.63926 72.4951 9.89208C74.5505 10.0389 76.6615 10.125 78.8587 10.125V30.375C78.8587 34.2225 78.3676 37.8675 77.3855 41.3403C76.4421 44.7637 75.1015 48.0649 73.3912 51.1768C71.688 54.2843 69.6729 57.2103 67.3769 59.9096C65.0457 62.6702 62.5217 65.262 59.8237 67.6653C57.09 70.0758 54.2108 72.316 51.2022 74.3732C48.1951 76.4589 45.1576 78.3979 42.1201 80.1596L40.9051 80.8835L39.6901 80.1596C36.5675 78.3518 33.5175 76.4215 30.5472 74.3732C27.5218 72.3391 24.6411 70.0978 21.9258 67.6653C19.2294 65.2619 16.707 62.6701 14.3776 59.9096C12.0878 57.1989 10.0636 54.2745 8.33296 51.1768C6.65186 48.0511 5.31269 44.7532 4.33865 41.3403C3.35029 37.77 2.86301 34.0795 2.89077 30.375V10.125C5.09296 10.125 7.20402 10.0389 9.2594 9.89208C11.2827 9.75155 13.2929 9.4622 15.2737 9.02639C17.2126 8.59102 19.1515 8.01389 21.0601 7.23427C23.0406 6.43497 24.9393 5.44658 26.7301 4.28283C28.9576 2.83495 31.2155 1.76676 33.443 1.06308C35.8419 0.327655 38.3405 -0.030988 40.8494 -4.8444e-05ZM73.7658 15.1014C69.9336 14.9155 66.1371 14.2748 62.4562 13.1928C58.7947 12.1006 55.3071 10.4932 52.0983 8.41889C50.4339 7.32638 48.6263 6.46944 46.727 5.87245C44.8297 5.29905 42.8567 5.01572 40.8747 5.03208C38.8781 5.01916 36.8905 5.30237 34.9769 5.87245C33.0748 6.45004 31.2695 7.30831 29.6208 8.41889C26.4064 10.5045 22.9098 12.119 19.2376 13.2131C15.6483 14.256 11.8919 14.8938 7.95327 15.1267V30.4003C7.95327 33.7567 8.38865 36.9663 9.2594 40.0595C10.1465 43.1258 11.3689 46.085 12.9044 48.8835C14.4583 51.7111 16.2899 54.3769 18.3719 56.8417C20.483 59.3274 22.7358 61.641 25.1658 63.8381C27.5958 66.0403 30.1422 68.0653 32.8051 69.9435C35.4933 71.8267 38.1865 73.5328 40.8747 75.092C43.6273 73.4896 46.3111 71.7719 48.919 69.9435C51.5995 68.0712 54.1594 66.032 56.5837 63.8381C59.0137 61.641 61.2715 59.3274 63.3826 56.8417C65.4649 54.3771 67.2964 51.7112 68.8501 48.8835C70.3788 46.0885 71.5831 43.128 72.4394 40.0595C73.3366 36.9188 73.7832 33.6666 73.7658 30.4003V15.1014Z"
            fill="#322206" />
        <path
            d="M41.9 34.4252C38.0176 34.5662 37.0761 38.1333 33.4771 41.4499C28.2938 46.3171 29.1486 50.5656 32.2852 51.4296C35.4218 52.2936 38.1343 48.6938 41.6092 48.8831C45.0378 48.8427 47.6616 52.4592 50.792 51.5254C53.9455 50.7065 54.9753 46.4001 49.9628 41.5139C46.5911 38.3032 45.7384 34.6539 41.9 34.4252Z"
            fill="#251C08" />
        <path
            d="M31.97 31.0415C33.9783 34.2932 34.1748 38.0739 32.4269 39.4811C30.5709 40.9123 27.453 39.4364 25.4447 36.1847C23.4364 32.9331 23.2399 29.1524 24.9879 27.7451C26.8438 26.3139 29.9617 27.7899 31.97 31.0415Z"
            fill="#251C08" />
        <path
            d="M51.2157 31.2521C48.9915 34.2835 48.7624 37.8396 50.5812 39.2496C52.4 40.6596 55.6982 39.445 57.9223 36.4136C60.1465 33.3822 60.3757 29.826 58.5568 28.4161C56.625 27.0311 53.3268 28.2457 51.2157 31.2521Z"
            fill="#251C08" />
        <path
            d="M40.9436 23.8791C41.6368 27.9067 40.1392 31.533 37.7584 31.934C35.3775 32.3351 32.8987 29.3368 32.2056 25.3091C31.5124 21.2815 33.01 17.6552 35.3909 17.2542C37.7718 16.8531 40.2505 19.8514 40.9436 23.8791Z"
            fill="#251C08" />
        <path
            d="M43.0084 23.77C42.2801 27.5215 43.6268 30.813 45.8803 31.24C48.2429 31.6427 50.6809 29.0178 51.4315 25.3771C52.1597 21.6257 50.813 18.3341 48.5596 17.9072C46.2838 17.3694 43.7366 20.0185 43.0084 23.77Z"
            fill="#251C08" />
    </g>
    <defs>
        <clipPath id="clip0_19_827">
            <rect width="81" height="81" fill="white" />
        </clipPath>
    </defs>
</svg>