<svg width="81" height="81" viewBox="0 0 99 99" fill="none" xmlns="http://www.w3.org/2000/svg">
    <path
        d="M70.7671 44.1924L79.9639 34.8792C81.0575 35.2421 82.2034 35.4878 83.4164 35.4878H87.1489C93.3336 35.4878 98.3462 30.4116 98.3462 24.1487C98.3462 17.8857 93.3336 12.8096 87.1489 12.8096H85.9246V11.566C85.9246 5.30307 80.912 0.226929 74.7273 0.226929C68.5426 0.226929 63.5299 5.30307 63.5299 11.566V15.3457C63.5299 16.5741 63.7725 17.7345 64.1308 18.842L54.9341 28.1551L70.7671 44.1924Z"
        fill="#322206" />
    <path
        d="M28.5381 54.881L19.3413 64.1942C18.2477 63.8314 17.1018 63.5857 15.8888 63.5857H12.1563C5.97167 63.5857 0.958984 68.6618 0.958984 74.9248C0.958984 81.1878 5.97167 86.2639 12.1563 86.2639H13.3806V87.5036C13.3806 93.7666 18.3933 98.8427 24.578 98.8427C30.7626 98.8427 35.7753 93.7666 35.7753 87.5036V83.7239C35.7753 82.4955 35.5327 81.3352 35.1744 80.2277L44.3712 70.9145L28.5381 54.881Z"
        fill="#322206" />
    <path
        d="M87.1488 63.586H83.4164C82.2033 63.586 81.0574 63.8317 79.9638 64.1946L35.1781 18.842C35.5364 17.7345 35.779 16.5741 35.779 15.3457V11.566C35.779 5.30307 30.7664 0.226929 24.5817 0.226929C18.397 0.226929 13.3843 5.30307 13.3843 11.566V12.8058H12.1563C5.97167 12.8058 0.958984 17.8819 0.958984 24.1449C0.958984 30.4078 5.97167 35.484 12.1563 35.484H15.8888C17.1018 35.484 18.2477 35.2383 19.3413 34.8754L64.127 80.2281C63.7687 81.3355 63.5261 82.4959 63.5261 83.7243V87.504C63.5261 93.7669 68.5388 98.8431 74.7235 98.8431C80.9081 98.8431 85.9208 93.7669 85.9208 87.504V86.2642H87.1451C93.3298 86.2642 98.3424 81.1881 98.3424 74.9251C98.3424 68.6622 93.3335 63.586 87.1488 63.586Z"
        fill="#322206" />
</svg>