<svg width="81" height="81" viewBox="0 0 155 142" fill="none" xmlns="http://www.w3.org/2000/svg">
    <path
        d="M110.863 87.9347L110.965 87.7121L110.593 87.8537L110.371 88.1939C110.49 88.3164 110.461 88.4038 110.213 88.4353C111.194 88.777 111.266 88.3122 111.334 87.8759C111.339 87.8419 111.344 87.8082 111.35 87.775C111.215 87.8215 111.087 87.8622 110.994 87.8919C110.933 87.9116 110.886 87.9264 110.863 87.9347L110.861 87.9407C110.841 87.9442 110.844 87.9418 110.863 87.9347Z"
        fill="#322206" />
    <path d="M111.512 87.3736L111.993 87.3212C111.75 87.2583 111.604 87.289 111.512 87.3736Z"
        fill="#322206" />
    <path
        d="M111.993 87.3212L111.406 87.5446C111.38 87.614 111.364 87.6927 111.35 87.775C111.795 87.6222 112.326 87.4075 111.993 87.3212Z"
        fill="#322206" />
    <path fill-rule="evenodd" clip-rule="evenodd"
        d="M86.1728 42.1832C85.8309 40.5504 84.8972 39.324 83.613 38.8176C83.5607 38.797 83.5069 38.7868 83.4531 38.7765C83.4125 38.7688 83.3719 38.7611 83.3318 38.7489C84.252 34.192 86.8469 17.6258 78.3455 7.93092C73.4181 2.31249 65.7293 0.0888883 55.5046 1.31523C55.3167 1.23255 55.1126 1.18433 54.9008 1.17744C46.8694 0.894966 40.7233 3.30545 36.694 8.33224C28.8001 18.1775 31.6584 34.7905 32.4815 38.7283C32.4334 38.7418 32.3848 38.7512 32.3362 38.7607C32.2624 38.775 32.1887 38.7893 32.117 38.8176C30.832 39.324 29.8991 40.5504 29.5563 42.1832C29.251 43.6378 29.4211 45.3179 30.0351 46.9129C31.1594 49.8384 33.4343 51.7071 35.6191 51.7071C35.8527 51.7071 36.0853 51.6849 36.3155 51.641C38.1684 57.6134 41.2594 62.5796 46.3668 65.6278V71.7506H43.7136V89.0192H72.0158V71.7506H69.3615V65.666C74.478 62.6217 77.5717 57.6404 79.4235 51.6437C79.6506 51.6863 79.8801 51.7071 80.111 51.7071C82.2932 51.7071 84.5689 49.8384 85.6949 46.9137C86.3072 45.3179 86.4773 43.6378 86.1728 42.1832ZM32.4691 45.9526C32.0447 44.8486 31.9146 43.6748 32.1119 42.7326C32.2684 41.9886 32.6153 41.4598 33.0644 41.2824C33.186 41.235 33.3186 41.2118 33.4598 41.2118C33.7147 41.2118 33.9972 41.2897 34.2887 41.4351C34.5879 44.0707 35.013 46.6263 35.6049 49.0533C34.6052 49.033 33.2056 47.8686 32.4691 45.9526ZM70.8604 74.3962C68.2628 77.1616 63.4218 79.0258 57.8647 79.0258C52.3076 79.0258 47.4666 77.1616 44.869 74.3962H47.673C48.3942 74.3962 48.9793 73.8037 48.9793 73.0734V66.9486C51.5247 68.0089 54.4832 68.6711 57.9309 68.8475C61.323 68.6729 64.2367 68.0204 66.7499 66.9791V73.0734C66.7499 73.8037 67.335 74.3962 68.0561 74.3962H70.8604ZM78.8795 40.0344C78.7936 40.8477 78.707 41.6602 78.6004 42.442C78.3285 44.4347 77.9809 46.3161 77.5572 48.0925C77.3973 48.7628 77.2172 49.4065 77.0334 50.0444C75.432 55.6008 72.91 59.9293 69.0151 62.6975C68.4399 63.1063 67.8172 63.462 67.1811 63.8027C64.6212 65.1741 61.586 66.016 57.9309 66.2053C54.2841 66.0177 51.2492 65.1918 48.6872 63.8444C48.0069 63.4866 47.3479 63.1054 46.7363 62.6712C42.8331 59.9005 40.3051 55.5795 38.7011 50.0347C38.5165 49.3965 38.3358 48.7524 38.1753 48.0817C37.7512 46.3093 37.403 44.4325 37.1309 42.4449C37.0239 41.6628 36.9367 40.8501 36.8505 40.0365C36.6199 37.8594 36.4555 35.5779 36.3554 33.1881C36.6612 31.248 37.1088 29.6374 37.6422 28.318C38.4459 28.1802 40.1799 27.8004 42.2218 26.8479C42.5433 27.2983 43.0909 27.5842 43.6471 27.5412C43.9363 27.5265 47.7853 27.3035 51.8537 25.687C51.8333 25.8739 51.8444 26.0659 51.8886 26.2563C52.063 26.9969 52.7093 27.5257 53.4611 27.5429C53.8106 27.5541 60.7254 27.6402 64.9929 22.6978C66.6393 26.692 70.3361 33.2345 77.876 37.3416L79.0001 38.9101C78.9777 39.1521 78.9512 39.3878 78.9247 39.6236C78.9094 39.7601 78.8941 39.8967 78.8795 40.0344ZM83.2592 45.9526C82.5251 47.865 81.1292 49.0265 80.1319 49.052C80.7209 46.6251 81.144 44.0695 81.4421 41.4341C81.733 41.2892 82.0149 41.2118 82.2693 41.2118C82.4105 41.2118 82.5432 41.235 82.6639 41.2824C83.2797 41.5252 83.5263 42.2952 83.6181 42.7326C83.8154 43.6748 83.6845 44.8486 83.2592 45.9526ZM54.9008 49.3966V45.6883C54.9008 44.958 55.4859 44.3655 56.2071 44.3655C56.9283 44.3655 57.5134 44.958 57.5134 45.6883V49.0969H59.5221C60.2432 49.0969 60.8283 49.6894 60.8283 50.4197C60.8283 51.1499 60.2432 51.7425 59.5221 51.7425H57.2174C55.9401 51.7425 54.9008 50.6901 54.9008 49.3966ZM48.6589 40.8901C48.6589 42.3128 47.52 43.4662 46.1151 43.4662C44.7101 43.4662 43.5713 42.3128 43.5713 40.8901C43.5713 39.4674 44.7101 38.3142 46.1151 38.3142C47.52 38.3142 48.6589 39.4674 48.6589 40.8901ZM72.1581 40.8901C72.1581 42.3128 71.0191 43.4662 69.6143 43.4662C68.2094 43.4662 67.0705 42.3128 67.0705 40.8901C67.0705 39.4674 68.2094 38.3142 69.6143 38.3142C71.0191 38.3142 72.1581 39.4674 72.1581 40.8901ZM64.259 57.5452C64.259 59.6809 60.9559 60.4422 57.8646 60.4422C54.7741 60.4422 51.4711 59.6809 51.4711 57.5452C51.4711 56.8149 52.0561 56.2224 52.7773 56.2224C53.3599 56.2224 53.8531 56.6082 54.0215 57.1421C54.4586 57.4039 55.8329 57.7966 57.8646 57.7966C59.8971 57.7966 61.2714 57.4039 61.7085 57.1413C61.8769 56.6082 62.3702 56.2224 62.9527 56.2224C63.6739 56.2224 64.259 56.8149 64.259 57.5452ZM129.79 98.8041C129.414 98.1335 128.83 97.6361 128.135 97.3499C128.244 96.6222 128.136 95.8566 127.75 95.1682C127.374 94.4978 126.791 94.0007 126.095 93.7142C126.204 92.9865 126.097 92.2208 125.711 91.5322C125.325 90.8435 124.73 90.3587 124.056 90.0821C124.166 89.354 124.058 88.5881 123.673 87.8997C123.229 87.1091 122.51 86.5424 121.644 86.3013C120.787 86.0619 119.879 86.1756 119.098 86.6234L117.774 87.3851C117.522 86.968 117.657 86.1325 117.248 85.8197C116.965 85.4071 116.476 83.9411 114.245 85.8197C112.744 86.5705 111.295 86.9947 111.145 87.321L111.1 87.4185L110.861 87.4446L110.593 87.8537L110.965 87.7121L110.863 87.9347C110.844 87.9418 110.841 87.9442 110.861 87.9407L110.863 87.9347C110.886 87.9264 110.933 87.9116 110.994 87.8919C111.087 87.8622 111.215 87.8215 111.35 87.775C111.344 87.8082 111.339 87.8419 111.334 87.8759C111.266 88.3122 111.194 88.777 110.213 88.4353L110.371 88.1939C110.344 88.1661 110.309 88.1364 110.267 88.1052L107.986 94.2127C107.872 94.4107 107.77 94.6129 107.678 94.8242L99.0653 99.7721L84.3699 75.3306C84.0093 74.7314 83.5705 74.2168 83.0988 73.745C82.3208 72.7282 81.1977 72.0043 79.8953 71.7709C78.6265 71.3453 77.2741 71.2094 75.9346 71.4367V89.1642C76.2537 89.2647 76.5493 89.4115 76.8062 89.6067C77.2878 89.9726 77.6405 90.4877 77.7825 91.0947L78.1117 92.4919L84.2076 118.361V107.282L89.1034 115.425C90.658 118.01 93.381 119.447 96.1773 119.447C97.5618 119.447 98.965 119.094 100.253 118.353L115.936 109.342C115.97 109.322 116 109.299 116.03 109.275C116.046 109.262 116.063 109.249 116.08 109.237C116.091 109.229 116.102 109.221 116.114 109.214C116.158 109.217 116.201 109.221 116.244 109.224C116.324 109.231 116.403 109.238 116.484 109.238C117.504 109.238 118.538 108.978 119.488 108.432L122.503 106.84C123.427 106.146 122.503 106.84 123.331 106.2L123.823 105.925L125.004 105.675L125.64 105.444C126.181 105.03 127.398 104.854 127.25 104.173L128.531 103.436C129.31 102.988 129.87 102.259 130.108 101.383C130.346 100.508 130.232 99.5913 129.79 98.8041ZM111.406 87.5446L110.965 87.7121L111.1 87.4185L111.512 87.3736C111.464 87.4178 111.43 87.4767 111.406 87.5446ZM111.993 87.3212C112.326 87.4075 111.795 87.6222 111.35 87.775C111.364 87.6927 111.38 87.614 111.406 87.5446L111.993 87.3212ZM111.993 87.3212C111.75 87.2583 111.604 87.289 111.512 87.3736L111.993 87.3212ZM122.189 92.6946L122.428 92.557C122.541 92.4933 122.666 92.4588 122.792 92.4588C122.859 92.4588 122.925 92.4692 122.991 92.4864C123.183 92.5398 123.343 92.6655 123.44 92.8395C123.643 93.1995 123.517 93.6611 123.161 93.866L122.923 94.003L121.202 94.9934L119.743 95.833C119.571 95.9295 119.372 95.9536 119.18 95.9036C118.989 95.8502 118.829 95.7245 118.732 95.5505C118.53 95.1888 118.654 94.729 119.01 94.524L120.356 93.7492L122.189 92.6946ZM117.996 90.6351L118.028 90.5642C118.042 90.535 118.05 90.5048 118.059 90.4746C118.065 90.4504 118.072 90.4261 118.082 90.4023C118.099 90.3587 118.112 90.3145 118.126 90.2703C118.132 90.2517 118.138 90.2332 118.144 90.2147L119.774 89.2765L120.389 88.9228C120.503 88.8591 120.627 88.8246 120.755 88.8246C120.821 88.8246 120.887 88.8332 120.952 88.8522C121.144 88.9056 121.304 89.0313 121.401 89.2053C121.527 89.4294 121.513 89.6872 121.409 89.9037C121.345 90.0349 121.256 90.1545 121.122 90.2318L120.184 90.7717L118.853 91.5373L117.703 92.1988C117.561 92.28 117.401 92.2977 117.24 92.2766L117.996 90.6351ZM119.392 105.444L118.197 106.131C116.528 107.096 114.39 106.498 113.438 104.805L110.209 99.0521C109.749 98.2311 109.631 97.2778 109.879 96.3669L109.894 96.3352L110.322 95.3996L113.514 88.4353C113.606 88.2364 113.857 88.1066 114.167 88.0769C114.397 88.0548 114.656 88.0813 114.924 88.208C115.193 88.335 115.38 88.5191 115.511 88.7117C115.54 88.7553 115.575 88.7959 115.598 88.8402C115.708 89.0595 115.734 89.282 115.659 89.4481L112.986 95.2586L112.453 96.4169C112.41 96.5097 112.395 96.6063 112.38 96.7028L112.371 96.7587C112.277 97.3303 112.54 97.9171 113.085 98.1737C113.264 98.2581 113.451 98.2977 113.635 98.2977C113.821 98.2977 113.999 98.2456 114.167 98.1694L116.497 100.083C114.713 98.7988 115.493 99.2689 116.497 100.083C117.096 100.713 116.497 100.083 118.916 102.461L116.497 100.083L119.931 103.694L120.736 104.671L119.392 105.444ZM121.782 99.4672C121.608 99.5637 121.406 99.593 121.219 99.5379C121.028 99.4845 120.869 99.3587 120.772 99.1848C120.569 98.8231 120.693 98.3632 121.049 98.1582L122.705 97.2054L124.228 96.3289L124.468 96.1913C124.58 96.1275 124.706 96.0931 124.832 96.0931C124.898 96.0931 124.964 96.1034 125.031 96.1206C125.221 96.174 125.381 96.2998 125.478 96.4737C125.68 96.8354 125.556 97.2953 125.201 97.5003L124.962 97.6374L123.551 98.4496L121.782 99.4672ZM127.589 100.682C127.536 100.874 127.412 101.036 127.24 101.135H127.238L126.626 101.487L125.899 101.906L123.823 103.101C123.668 103.192 123.495 103.208 123.331 103.179C123.119 103.141 122.923 103.022 122.809 102.819C122.607 102.457 122.733 101.997 123.088 101.792L125.054 100.662L125.583 100.357L126.507 99.8255C126.619 99.7618 126.745 99.7273 126.871 99.7273C126.882 99.7273 126.894 99.7295 126.905 99.7316C126.913 99.7333 126.922 99.7349 126.93 99.7356L126.944 99.7368C126.986 99.7404 127.027 99.744 127.068 99.7549C127.26 99.8083 127.419 99.934 127.519 100.111C127.616 100.285 127.641 100.487 127.589 100.682ZM83.9526 138.975L83.2252 121.841C83.2218 121.796 83.2167 121.751 83.2048 121.707L76.0884 91.5029C76.0622 91.3897 76.0067 91.2875 75.9346 91.195C75.7406 90.9458 75.4042 90.783 75.0271 90.783H40.7021C40.3249 90.783 39.9889 90.9467 39.7948 91.1952C39.7228 91.2873 39.6672 91.3889 39.6407 91.5012L33.3906 118.032L32.6012 117.581L32.418 117.477C32.2248 117.369 32.0304 117.28 31.836 117.191L31.802 117.176L37.6177 92.4895L37.8615 91.4546L37.9467 91.093C38.0891 90.4861 38.4421 89.9714 38.9238 89.6059C39.1807 89.4111 39.476 89.2644 39.7948 89.1641V71.6777V71.5011C36.7472 70.5017 33.2702 71.3475 31.025 73.9415L2.94047 106.35C1.38249 108.148 0.657922 110.534 0.948768 112.907C1.23961 115.282 2.51951 117.416 4.46444 118.773L20.575 130.017C21.0778 130.368 21.611 130.632 22.1541 130.857C22.8137 131.624 23.5991 132.279 24.4844 132.778L30.1609 135.981L31.0121 136.461L31.5218 136.748L31.821 136.917C31.8257 136.92 31.8305 136.922 31.8354 136.924C31.8384 136.925 31.8413 136.926 31.8443 136.927C31.8517 136.929 31.8592 136.932 31.8663 136.936L31.7781 138.977L31.696 140.873C31.685 141.132 31.8117 141.323 31.9205 141.438C32.128 141.659 32.4402 141.785 32.7752 141.785H82.9531C83.2882 141.785 83.6011 141.659 83.8086 141.438C83.9175 141.323 84.045 141.132 84.0331 140.873L83.9526 138.975ZM21.5113 110.322L31.5218 98.7702V117.045C31.193 116.909 30.8638 116.802 30.5349 116.712C30.4651 116.653 30.3985 116.592 30.3319 116.53C30.2148 116.422 30.0978 116.314 29.9637 116.221L21.5113 110.322ZM41.1145 125.989C40.9963 126.204 40.7174 126.285 40.5099 126.164L34.5713 122.814C34.242 122.629 33.8544 122.64 33.5062 122.777C33.1881 122.902 32.9025 123.131 32.7344 123.434C32.5643 123.741 32.5218 124.103 32.6162 124.442C32.7106 124.779 32.9343 125.065 33.237 125.238L33.242 125.24L40.35 129.253C40.4878 129.33 40.5405 129.456 40.5592 129.523C40.5788 129.59 40.5992 129.724 40.5209 129.866C40.4452 130.005 40.3219 130.057 40.2547 130.078C40.1876 130.096 40.0532 130.117 39.9171 130.04L32.9714 126.119L32.8041 126.025C32.6603 125.944 32.5029 125.908 32.3439 125.895C32.0592 125.871 31.7766 125.96 31.5218 126.112C31.5122 126.118 31.5024 126.123 31.4926 126.128C31.4784 126.136 31.4642 126.143 31.4507 126.152C31.256 126.283 31.0799 126.441 30.9655 126.647C30.7963 126.953 30.7538 127.317 30.8482 127.654C30.9289 127.943 31.1183 128.18 31.357 128.353C31.3743 128.366 31.3894 128.381 31.4045 128.396C31.4244 128.416 31.4442 128.436 31.469 128.45L31.5218 128.48L31.5836 128.515L32.2152 128.871L37.4067 131.8C37.5453 131.877 37.598 132.003 37.6167 132.072C37.6363 132.139 37.6567 132.272 37.5784 132.413C37.5019 132.553 37.3794 132.606 37.3123 132.625C37.2468 132.644 37.1141 132.666 36.9746 132.587L32.1716 129.878L31.5218 129.511L31.3128 129.393L30.9519 129.19L30.4615 128.913L30.3728 128.863C29.9586 128.631 29.3259 128.72 28.9219 128.975C28.5299 129.223 28.2969 129.662 28.3079 130.129C28.3142 130.376 28.395 130.606 28.5224 130.807C28.6368 130.987 28.7875 131.145 28.9781 131.252L30.3296 132.015L31.1808 132.495L31.5218 132.688L32.0376 132.979L33.5261 133.819C33.6631 133.896 33.7149 134.022 33.7345 134.089C33.7532 134.156 33.7736 134.29 33.6971 134.43C33.5797 134.644 33.2991 134.728 33.0924 134.606L31.994 133.986L31.5218 133.72L31.1379 133.503L30.2868 133.023L27.1772 131.268L25.7566 130.467C24.5405 129.781 23.5829 128.684 23.0608 127.377C22.3532 125.61 22.4332 123.677 23.2734 122.208C24.2964 120.42 26.2652 119.099 28.4559 119.099C29.3437 119.099 30.2685 119.322 31.1809 119.812C31.2003 119.823 31.2198 119.83 31.2393 119.84C31.2461 119.843 31.2529 119.846 31.2598 119.85L31.5218 120L31.971 120.256L32.7603 120.707L33.2289 120.974L40.941 125.377C41.0797 125.455 41.1324 125.582 41.1511 125.649C41.1707 125.716 41.1911 125.851 41.1145 125.989ZM73.4101 119.429C73.3728 121.753 71.1587 122.767 70.0298 120.973L68.8942 119.17C68.5922 120.24 68.1326 121.244 67.5378 122.159C67.5397 122.216 67.543 122.272 67.5463 122.329C67.5514 122.413 67.5564 122.498 67.5564 122.584C67.5564 128.581 63.2177 133.442 57.8647 133.442C52.5117 133.442 48.1729 128.581 48.1729 122.584C48.1729 122.498 48.1779 122.414 48.183 122.329C48.1864 122.273 48.1897 122.216 48.1916 122.159C47.5959 121.244 47.1362 120.24 46.8342 119.17L45.6996 120.973C44.5707 122.767 42.3566 121.753 42.3183 119.429C42.3006 118.344 42.2624 117.217 42.1915 116.113C41.9444 112.235 47.1577 110.417 49.507 109.795C51.5971 108.274 54.5626 107.589 57.8647 107.589C61.1658 107.589 64.1322 108.274 66.2224 109.795C68.5717 110.417 73.7848 112.235 73.5378 116.113C73.467 117.217 73.4287 118.344 73.4101 119.429ZM53.8931 127.483C53.8931 125.849 55.6712 124.524 57.8647 124.524C60.0582 124.524 61.8363 125.849 61.8363 127.483C61.8363 129.116 60.0582 130.441 57.8647 130.441C55.6712 130.441 53.8931 129.116 53.8931 127.483Z"
        fill="#322206" />
    <path
        d="M111.406 87.5446C111.43 87.4767 111.464 87.4178 111.512 87.3736L111.1 87.4185L110.965 87.7121L111.406 87.5446Z"
        fill="#322206" />
    <path d="M110.371 88.1939C110.49 88.3164 110.461 88.4038 110.213 88.4353L110.371 88.1939Z"
        fill="#322206" />
    <path
        d="M129.26 25.0112L134.822 41.0921H152.821L138.259 51.0306L143.821 67.1115L129.26 57.1729L114.698 67.1115L120.26 51.0306L105.698 41.0921H123.698L129.26 25.0112Z"
        fill="#322206" />
</svg>